# xmcd
#
# Track frame offsets:
#	150
#	15272
#	31075
#	42982
#	56967
#	73160
#	89504
#	105990
#	121043
#	135393
#	148626
#	159457
#
# Disc length: 2378 seconds
#
# Revision: 0
# Processed by: cddbd v1.5.2PL0 Copyright (c) Steve Scherf et al.
# Submitted via: EasyCDDAExtractor 10.0.3.1
#
DISCID=9709480c
DTITLE=Guilherme e Santiago - Ao Vivo Em Goiania
DYEAR=2008
DGENRE=
TTITLE0=E Amor Pra Toda Vida
TTITLE1=Foto 3X4
TTITLE2=Ladrao de Mulher
TTITLE3=Marcas
TTITLE4=Quem Ama Uma Vez Nao Deixa de Amar
TTITLE5=Chance-Meu Ex-Amor
TTITLE6=Quando Voce Me Abracar
TTITLE7=Eu Nunca Te Esqueci
TTITLE8=Homens
TTITLE9=Eu Nao Contei Ate Dez
TTITLE10=Pedaco de Poema
TTITLE11=Magia e Misterio(Dance)
EXTD=
EXTT0=
EXTT1=
EXTT2=
EXTT3=
EXTT4=
EXTT5=
EXTT6=
EXTT7=
EXTT8=
EXTT9=
EXTT10=
EXTT11=
PLAYORDER=
